# xmcd CD database file
#
# Track frame offsets:
#	150
#	9410
#	18523
#	28709
#	39584
#	50552
#	59113
#	69005
#	76505
#	86481
#	96823
#	108575
#	118546
#	128296
#	137616
#	146438
#	157472
#	167892
#	178840
#	189577
#
# Disc length: 2645 seconds
#
# Revision: 0
# Processed by: cddbd v1.5.2PL0 Copyright (c) Steve Scherf et al.
# Submitted via: CDex 1.70beta2
#
DISCID=0a0a5314
DTITLE=Jim Reeves - The County Music Gentleman CD 4
DYEAR=1900
DGENRE=Country
TTITLE0=Billy Bayou
TTITLE1=I'd Like To Be
TTITLE2=In a Mansion Standy My Love
TTITLE3=Someday
TTITLE4=If Heartache Is The Fashion
TTITLE5=Throw Another Log On The Fire
TTITLE6=A Fool Such As I
TTITLE7='Till The End Of The World
TTITLE8=Making Believe
TTITLE9=He'll Have To Go
TTITLE10=May The Good Lord Bless And Keep You
TTITLE11=Partners
TTITLE12=I'm Beginning To Forget You
TTITLE13=Dear Hearts And Gentle People
TTITLE14=My Juanita
TTITLE15=Jus Call Me Lonesome
TTITLE16=Scarlet Ribbons
TTITLE17=Satan Can't Hold Me
TTITLE18=How's The World Treating You
TTITLE19=Home
EXTD=
EXTT0=
EXTT1=
EXTT2=
EXTT3=
EXTT4=
EXTT5=
EXTT6=
EXTT7=
EXTT8=
EXTT9=
EXTT10=
EXTT11=
EXTT12=
EXTT13=
EXTT14=
EXTT15=
EXTT16=
EXTT17=
EXTT18=
EXTT19=
PLAYORDER=
